# AST/ASF file generated using VICON BodyLanguage
# -----------------------------------------------
:version 1.10
:name VICON
:units
  mass 1.0
  length 0.45
  angle deg
:documentation
   .ast/.asf automatically generated from VICON data using
   VICON BodyBuilder and BodyLanguage model FoxedUp or BRILLIANT.MOD
:root
   order TX TY TZ RX RY RZ
   axis XYZ
   position 0 0 0  
   orientation 0 0 0 
:bonedata
  begin
     id 1 
     name lhipjoint
     direction 0.645893 -0.654526 0.392961 
     length 2.38111 
     axis 0 0 0  XYZ
  end
  begin
     id 2 
     name lfemur
     direction 0.34202 -0.939693 0  
     length 6.6822  
     axis 0 0 20  XYZ
    dof rx ry rz
    limits (-160.0 20.0)
           (-70.0 70.0)
           (-60.0 70.0)
  end
  begin
     id 3 
     name ltibia
     direction 0.34202 -0.939693 0   
     length 6.93904   
     axis 0 0 20   XYZ
    dof rx
    limits (-10.0 170.0)
  end
  begin
     id 4 
     name lfoot
     direction 0.0694967 -0.190941 0.979138   
     length 2.13616   
     axis -90 7.62852e-016 20   XYZ
    dof rx rz
    limits (-45.0 90.0)
           (-70.0 20.0)
  end
  begin
     id 5 
     name ltoes
     direction 1.535e-011 -4.2202e-011 1   
     length 1.07536   
     axis -90 7.62852e-016 20   XYZ
    dof rx
    limits (-90.0 20.0)
  end
  begin
     id 6 
     name rhipjoint
     direction -0.700219 -0.612087 0.367481   
     length 2.54621  
     axis 0 0 0  XYZ 
  end
  begin
     id 7 
     name rfemur
     direction -0.34202 -0.939693 0   
     length 6.55353   
     axis 0 0 -20   XYZ
    dof rx ry rz
    limits (-160.0 20.0)
           (-70.0 70.0)
           (-70.0 60.0)
  end
  begin
     id 8 
     name rtibia
     direction -0.34202 -0.939693 0   
     length 6.8736   
     axis 0 0 -20   XYZ
    dof rx
    limits (-10.0 170.0)
 end
 begin
     id 9 
     name rfoot
     direction -0.0679995 -0.186827 0.980037   
     length 2.1218  
     axis -90 -7.62852e-016 -20   XYZ
    dof rx rz
    limits (-45.0 90.0)
           (-20.0 70.0)
  end
  begin
     id 10 
     name rtoes
     direction -1.53589e-011 -4.21772e-011 1   
     length 1.06864   
     axis -90 -7.62852e-016 -20   XYZ
    dof rx
    limits (-90.0 20.0)
  end
  begin
     id 11 
     name lowerback
     direction -0.0416607 0.996347 -0.0745409   
     length 2.12205   
     axis 0 0 0   XYZ
    dof rx ry rz
    limits (-20.0 45.0)
           (-30.0 30.0)
           (-30.0 30.0)
  end
  begin
     id 12 
     name upperback
     direction -0.000153993 0.999276 -0.0380568   
     length 2.12759   
     axis 0 0 0   XYZ
    dof rx ry rz
    limits (-20.0 45.0)
           (-30.0 30.0)
           (-30.0 30.0)
  end
  begin
     id 13 
     name thorax
     direction 0.0187671 0.999821 -0.00241421   
     length 2.13704   
     axis 0 0 0   XYZ
    dof rx ry rz
    limits (-20.0 45.0)
           (-30.0 30.0)
           (-30.0 30.0)
  end
  begin
     id 14 
     name lowerneck
     direction 0.0268157 0.964865 0.261374   
     length 1.65253   
     axis 0 0 0   XYZ
    dof rx ry rz
    limits (-20.0 45.0)
           (-30.0 30.0)
           (-30.0 30.0)
  end
  begin
     id 15 
     name upperneck
     direction 0.00263774 0.939908 -0.341418   
     length 1.72375   
     axis 0 0 0   XYZ
    dof rx ry rz
    limits (-20.0 45.0)
           (-30.0 30.0)
           (-30.0 30.0)
  end
  begin
     id 16
     name head
     direction -0.00526001 0.989001 -0.147818  
     length 1.74878  
     axis 0 0 0   XYZ
    dof rx ry rz
    limits (-20.0 45.0)
           (-30.0 30.0)
           (-30.0 30.0)
  end
  begin
     id 17 
     name lclavicle
     direction 0.881214 0.461162 -0.103884  
     length 3.25108  
     axis 0 0 0   XYZ
    dof ry rz
    limits (-20.0 10.0)
           (0.0 20.0)
  end
  begin
     id 18 
     name lhumerus
     direction 1 -4.4899e-011 3.38092e-027   
     length 4.87408   
     axis 180 -30 -90   XYZ
    dof rx ry rz
    limits (-60.0 90.0)
           (-90.0 90.0)
           (-90.0 90.0)
  end
  begin
     id 19
     name lradius
     direction 1 -4.48931e-011 9.96288e-027   
     length 2.76729   
     axis 180 -30 -90   XYZ
    dof rx
    limits (-10.0 170.0)
  end
  begin
     id 20
     name lwrist
     direction 1 -4.4896e-011 1.50617e-026   
     length 1.38364   
     axis -9.31234e-015 90 90   XYZ
    dof ry
    limits (-180.0 0.0)
 end
  begin
     id 21 
     name lhand
     direction 1 -4.49038e-011 3.01286e-026   
     length 0.98922   
     axis -1.92217e-014 90 90   XYZ
    dof rx rz
    limits (-90.0 90.0)
           (-45.0 45.0)
  end
  begin
     id 22 
     name lfingers
     direction 1 -4.49051e-011 6.02588e-026   
     length 0.797535   
     axis -3.84436e-014 90 90   XYZ
    dof rx
    limits (0.0 90.0)
  end
  begin
     id 23
     name lthumb
     direction 0.707107 -6.34901e-011 0.707107   
     length 1.14511   
     axis -90 45 2.19363e-014   XYZ
    dof rx rz
    limits (-45.0 45.0)
           (-45.0 45.0)
  end
  begin
     id 24 
     name rclavicle
     direction -0.893894 0.441652 -0.0767889   
     length 3.29361  
     axis 0 0 0   XYZ 
    dof ry rz
    limits (-10.0 20.0)
           (-20.0 0.0)
  end
  begin
     id 25 
     name rhumerus
     direction -1 -4.48945e-011 8.0491e-028  
     length 4.71404   
     axis 180 30 90   XYZ
    dof rx ry rz
    limits (-90.0 60.0)
           (-90.0 90.0)
           (-90.0 90.0)
  end
  begin
     id 26 
     name rradius
     direction -1 -4.48986e-011 9.27795e-027   
     length 2.83468   
     axis 180 30 90   XYZ
    dof rx
    limits (-10.0 170.0)
  end
  begin
     id 27 
     name rwrist
     direction -1 -4.49029e-011 1.5064e-026   
     length 1.41734   
     axis -9.31234e-015 -90 -90   XYZ
    dof ry
    limits (-180.0 0.0)
  end
  begin
     id 28
     name rhand
     direction -1 -4.48857e-011 3.01165e-026   
     length 0.868195   
     axis -1.92217e-014 -90 -90   XYZ
    dof rx rz
    limits (-90.0 90.0)
           (-45.0 45.0)
  end
  begin
     id 29
     name rfingers
     direction -1 -4.49048e-011 6.02585e-026   
     length 0.699961   
     axis -3.84436e-014 -90 -90   XYZ
    dof rx
    limits (0.0 90.0)
  end
  begin
     id 30
     name rthumb
     direction -0.707107 -6.34854e-011 0.707107   
     length 1.00501   
     axis -90 -45 -2.19363e-014   XYZ
    dof rx rz
    limits (-45.0 45.0)
           (-45.0 45.0)
  end
:hierarchy
  begin
    root lhipjoint rhipjoint lowerback
    lhipjoint lfemur
    lfemur ltibia
    ltibia lfoot
    lfoot ltoes
    rhipjoint rfemur
    rfemur rtibia
    rtibia rfoot
    rfoot rtoes
    lowerback upperback
    upperback thorax
    thorax lowerneck lclavicle rclavicle
    lowerneck upperneck
    upperneck head
    lclavicle lhumerus
    lhumerus lradius
    lradius lwrist
    lwrist lhand lthumb
    lhand lfingers
    rclavicle rhumerus
    rhumerus rradius
    rradius rwrist
    rwrist rhand rthumb
    rhand rfingers
  end

#!OML:ASF H:\ManfredObstacles\Project 1\Capture day 2\Session 1\male.ASF
:FULLY-SPECIFIED
:DEGREES
64
root 1.69337 14.9015 20.2878 -165.537 -7.37434 170.19
lowerback 2.83189 -6.85549 -11.5456
upperback 2.71952 -9.55779 -0.0557458
thorax 3.14302 -5.14131 6.15522
lowerneck -33.8825 3.03412 5.7963
upperneck 41.2298 5.64722 -2.81828
head 24.657 3.30954 -0.640232
rclavicle 4.45278e-014 -4.17448e-014
rhumerus -66.9635 -6.87736 -63.3214
rradius 48.4933
rwrist 8.23892
rhand -10.4442 -7.14312
rfingers 7.12502
rthumb 15.5559 -36.5375
lclavicle 4.45278e-014 -4.17448e-014
lhumerus -18.0686 -33.9786 86.0118
lradius 96.2468
lwrist -23.8531
lhand -13.8918 1.18511
lfingers 7.12502
lthumb 12.2335 30.8073
rfemur -55.643 -2.86238 13.3891
rtibia 53.3189
rfoot 3.42469 -28.5736
rtoes 19.719
lfemur 10.0697 -4.05251 -29.6531
ltibia 23.5429
lfoot 11.7903 9.0361
ltoes -14.5246
65
root 1.70573 14.8414 20.0155 -165.23 -7.31353 170.221
lowerback 2.66252 -7.07578 -11.3402
upperback 2.60003 -9.81949 0.0700583
thorax 3.15025 -5.25783 6.14435
lowerneck -33.9171 3.3408 6.09563
upperneck 41.1241 6.18759 -3.31864
head 24.6953 3.46385 -0.821124
rclavicle 8.53283e-014 -3.97569e-015
rhumerus -66.859 -6.64814 -63.2617
rradius 48.581
rwrist 8.03398
rhand -10.4534 -7.03636
rfingers 7.12502
rthumb 15.547 -36.4314
lclavicle 8.53283e-014 -3.97569e-015
lhumerus -18.7191 -33.534 85.985
lradius 96.0214
lwrist -23.9427
lhand -13.8406 1.56375
lfingers 7.12502
lthumb 12.2828 31.183
rfemur -55.8747 -3.09881 13.9932
rtibia 54.9141
rfoot 2.08393 -29.9875
rtoes 17.6001
lfemur 9.82767 -3.88528 -29.3238
ltibia 24.8359
lfoot 12.6376 7.90746
ltoes -14.8185
66
root 1.71931 14.7757 19.7458 -164.934 -7.20576 170.266
lowerback 2.51764 -7.25387 -11.1256
upperback 2.48244 -10.0292 0.18918
thorax 3.13212 -5.34763 6.1283
lowerneck -33.9525 3.62594 6.39146
upperneck 41.005 6.69455 -3.82258
head 24.7299 3.60633 -1.0129
rclavicle -2.18663e-014 1.51076e-014
rhumerus -66.7278 -6.44278 -63.2937
rradius 48.7619
rwrist 7.80411
rhand -10.5001 -6.95861
rfingers 7.12502
rthumb 15.5021 -36.3571
lclavicle -2.18663e-014 1.51076e-014
lhumerus -19.4038 -33.0794 85.9851
lradius 95.7158
lwrist -24.0571
lhand -13.7781 1.90626
lfingers 7.12502
lthumb 12.343 31.5219
rfemur -56.1156 -3.17172 14.5032
rtibia 56.7818
rfoot 0.230937 -31.3395
rtoes 16.3337
lfemur 9.36782 -3.65669 -28.9738
ltibia 26.5145
lfoot 13.5344 6.72628
ltoes -14.7809
67
root 1.73385 14.7058 19.4796 -164.673 -7.04721 170.31
lowerback 2.43262 -7.38659 -10.9209
upperback 2.38246 -10.1879 0.295574
thorax 3.08806 -5.413 6.11518
lowerneck -34.0238 3.87591 6.62029
upperneck 40.8892 7.15512 -4.27116
head 24.7752 3.72859 -1.17324
rclavicle -3.77691e-015 2.88238e-014
rhumerus -66.5362 -6.26762 -63.4228
rradius 49.0272
rwrist 7.53371
rhand -10.5834 -6.89827
rfingers 7.12502
rthumb 15.4217 -36.303
lclavicle -3.77691e-015 2.88238e-014
lhumerus -20.0968 -32.5993 85.9952
lradius 95.3594
lwrist -24.0402
lhand -13.6342 2.1479
lfingers 7.12502
lthumb 12.4818 31.7551
rfemur -56.3539 -3.06316 14.8819
rtibia 58.8059
rfoot -1.78072 -32.4679
rtoes 15.9937
lfemur 8.7323 -3.363 -28.6228
ltibia 28.5494
lfoot 14.4959 5.47359
ltoes -14.2888
68
root 1.74893 14.6336 19.2172 -164.473 -6.83245 170.346
lowerback 2.42023 -7.46233 -10.735
upperback 2.32499 -10.282 0.374442
thorax 3.03362 -5.44953 6.09549
lowerneck -34.1005 4.10416 6.82317
upperneck 40.7332 7.55743 -4.68176
head 24.7772 3.8287 -1.32474
rclavicle 7.62339e-014 2.38542e-014
rhumerus -66.267 -6.16592 -63.6574
rradius 49.3571
rwrist 7.2772
rhand -10.7225 -6.85348
rfingers 7.12502
rthumb 15.2878 -36.2685
lclavicle 7.62339e-014 2.38542e-014
lhumerus -20.743 -32.1173 85.9803
lradius 94.9306
lwrist -23.9764
lhand -13.4354 2.32726
lfingers 7.12502
lthumb 12.6735 31.9227
rfemur -56.5626 -2.79173 15.1364
rtibia 60.8641
rfoot -3.55085 -33.377
rtoes 16.5771
lfemur 7.96128 -2.96974 -28.2748
ltibia 30.9115
lfoot 15.5051 4.1105
ltoes -13.3187
69
root 1.76408 14.5613 18.9585 -164.364 -6.56781 170.361
lowerback 2.50895 -7.48276 -10.5939
upperback 2.31762 -10.3175 0.423224
thorax 2.96658 -5.46136 6.08349
lowerneck -34.1202 4.2847 6.96054
upperneck 40.5525 7.88353 -5.02313
head 24.7134 3.90161 -1.44732
rclavicle -1.02275e-013 5.76476e-015
rhumerus -65.9071 -6.13572 -63.9848
rradius 49.727
rwrist 7.06111
rhand -10.9004 -6.79381
rfingers 7.12502
rthumb 15.1164 -36.2218
lclavicle -1.02275e-013 5.76476e-015
lhumerus -21.3693 -31.6135 85.9641
lradius 94.4405
lwrist -23.8584
lhand -13.1671 2.41199
lfingers 7.12502
lthumb 12.9321 31.9913
rfemur -56.6906 -2.40073 15.2841
rtibia 62.8514
rfoot -4.80952 -34.097
rtoes 17.7442
lfemur 7.09774 -2.49426 -27.9547
ltibia 33.5757
lfoot 16.5423 2.65163
ltoes -11.976
70
root 1.77871 14.4896 18.7037 -164.362 -6.26342 170.361
lowerback 2.71916 -7.4444 -10.4841
upperback 2.36658 -10.292 0.438621
thorax 2.87881 -5.44689 6.07143
lowerneck -34.1381 4.4467 7.06511
upperneck 40.3203 8.14437 -5.30921
head 24.5837 3.94988 -1.55154
rclavicle -1.27172e-013 -3.65764e-014
rhumerus -65.4473 -6.18193 -64.427
rradius 50.1598
rwrist 6.81248
rhand -11.0994 -6.79953
rfingers 7.12502
rthumb 14.9248 -36.2418
lclavicle -1.27172e-013 -3.65764e-014
lhumerus -21.9784 -31.1031 85.9462
lradius 93.8962
lwrist -23.6582
lhand -12.8732 2.41677
lfingers 7.12502
lthumb 13.2155 31.9779
rfemur -56.6756 -1.95138 15.3755
rtibia 64.6875
rfoot -5.51331 -34.7376
rtoes 19.3892
lfemur 6.15867 -1.95273 -27.6654
ltibia 36.5375
lfoot 17.5534 1.16571
ltoes -10.5022
71
root 1.79236 14.4203 18.4521 -164.465 -5.93509 170.373
lowerback 3.02304 -7.35286 -10.3763
upperback 2.48372 -10.2088 0.428351
thorax 2.79539 -5.40892 6.04553
lowerneck -34.1609 4.58591 7.14568
upperneck 40.0372 8.32999 -5.54811
head 24.3921 3.97032 -1.64667
rclavicle -1.05157e-013 1.0138e-014
rhumerus -64.8577 -6.31535 -64.9742
rradius 50.603
rwrist 6.61523
rhand -11.3457 -6.81192
rfingers 7.12502
rthumb 14.6875 -36.2717
lclavicle -1.05157e-013 1.0138e-014
lhumerus -22.5205 -30.5908 85.9056
lradius 93.2413
lwrist -23.558
lhand -12.6358 2.39815
lfingers 7.12502
lthumb 13.4442 31.9443
rfemur -56.471 -1.49706 15.4766
rtibia 66.3288
rfoot -5.88109 -35.3388
rtoes 21.1875
lfemur 5.13533 -1.34919 -27.3773
ltibia 39.7947
lfoot 18.48 -0.286748
ltoes -8.98583
72
root 1.80517 14.3552 18.2041 -164.649 -5.61099 170.462
lowerback 3.41303 -7.21906 -10.1987
upperback 2.64868 -10.0785 0.41766
thorax 2.69329 -5.34871 5.99326
lowerneck -34.2431 4.74843 7.29113
upperneck 39.6914 8.48481 -5.81039
head 24.175 3.98105 -1.77514
rclavicle -7.35503e-014 8.34896e-015
rhumerus -64.1387 -6.50486 -65.6418
rradius 51.0797
rwrist 6.40792
rhand -11.595 -6.89256
rfingers 7.12502
rthumb 14.4473 -36.3697
lclavicle -7.35503e-014 8.34896e-015
lhumerus -23.0294 -30.0521 85.862
lradius 92.47
lwrist -23.5734
lhand -12.4628 2.35364
lfingers 7.12502
lthumb 13.611 31.8887
rfemur -56.0536 -1.05605 15.6795
rtibia 67.7448
rfoot -6.10904 -35.9099
rtoes 22.9174
lfemur 3.98483 -0.695375 -27.0152
ltibia 43.3574
lfoot 19.251 -1.49699
ltoes -7.54349
